<svg width="360" height="800" viewBox="0 0 360 800" fill="none" xmlns="http://www.w3.org/2000/svg">
<rect width="360" height="799" fill="#CBEFFF"/>
<path d="M165.464 532.793C56.0226 486.945 61.7003 485.844 -17 503.825V800H376V503.825C373.828 515.146 297.801 588.232 165.464 532.793Z" fill="#59716D"/>
<path d="M357 602C174 638 246 720 -3 727V799H357V602Z" fill="black" fill-opacity="0.05"/>
<g clip-path="url(#clip0_409_1063)">
<path d="M134.011 291.999H78.7049V561.764H134.011V291.999Z" fill="#627E7A"/>
<path d="M106.383 559.873H106.358V559.65H106.365C106.369 559.725 106.375 559.799 106.383 559.873ZM124.764 423.066H106.358V291.999H134.011V374.329H124.764V423.066Z" fill="#59716D"/>
<path d="M331.294 392.094H275.987V561.316H331.294V392.094Z" fill="#627E7A"/>
<path d="M323.894 559.873H303.641V392.094H331.294V558.568H326.233C325.293 558.568 324.452 559.075 323.894 559.873Z" fill="#59716D"/>
<path d="M185.616 331.164L164.873 359.415V561.764H206.358V359.415L185.616 331.164Z" fill="#627E7A"/>
<path d="M206.358 560.18H185.616V559.994H206.358V560.18ZM206.358 445.526H185.616V368.505L206.358 392.181V445.526Z" fill="#59716D"/>
<path d="M441.48 580.963C447.238 580.963 451.911 576.31 451.911 570.571C451.911 564.832 447.238 560.18 441.48 560.18H-125.482C-131.24 560.18 -135.907 564.832 -135.907 570.571C-135.907 576.31 -131.24 580.963 -125.482 580.963H441.48Z" fill="#C8C2A8"/>
<mask id="mask0_409_1063" style="mask-type:luminance" maskUnits="userSpaceOnUse" x="-136" y="560" width="588" height="21">
<path d="M441.48 580.963C447.238 580.963 451.911 576.31 451.911 570.571C451.911 564.832 447.238 560.18 441.48 560.18H-125.482C-131.24 560.18 -135.907 564.832 -135.907 570.571C-135.907 576.31 -131.24 580.963 -125.482 580.963H441.48Z" fill="white"/>
</mask>
<g mask="url(#mask0_409_1063)">
<path d="M8.30921 569.509H-0.626953V571.202H8.30921V569.509Z" fill="white"/>
<path d="M136.775 569.509H127.839V571.202H136.775V569.509Z" fill="white"/>
<path d="M59.6957 569.509H50.7596V571.202H59.6957V569.509Z" fill="white"/>
<path d="M85.3893 569.509H76.4526V571.202H85.3893V569.509Z" fill="white"/>
<path d="M111.082 569.509H102.145V571.202H111.082V569.509Z" fill="white"/>
<path d="M34.0028 569.509H25.066V571.202H34.0028V569.509Z" fill="white"/>
<path d="M342.322 569.509H333.384V571.202H342.322V569.509Z" fill="white"/>
<path d="M368.015 569.509H359.078V571.202H368.015V569.509Z" fill="white"/>
<path d="M316.629 569.509H307.691V571.202H316.629V569.509Z" fill="white"/>
<path d="M290.935 569.509H281.998V571.202H290.935V569.509Z" fill="white"/>
<path d="M239.548 569.509H230.612V571.202H239.548V569.509Z" fill="white"/>
<path d="M213.855 569.509H204.918V571.202H213.855V569.509Z" fill="white"/>
<path d="M265.242 569.509H256.305V571.202H265.242V569.509Z" fill="white"/>
<path d="M188.162 569.509H179.225V571.202H188.162V569.509Z" fill="white"/>
<path d="M162.469 569.509H153.532V571.202H162.469V569.509Z" fill="white"/>
</g>
<path d="M259.967 423.066H68.9937V559.65H259.967V423.066Z" fill="#86A2A0"/>
<path d="M259.967 559.65H182.307V423.066H259.967V559.65Z" fill="#778F8C"/>
<path d="M60.6152 494.209H-98.5798V559.984H60.6152V494.209Z" fill="#86A2A0"/>
<path d="M60.6152 560.273H-18.9823V559.994H-3.38305V505.149H60.6152V560.273Z" fill="#778F8C"/>
<path d="M182.307 374.329H124.764V559.873H182.307V374.329Z" fill="#A6C7BC"/>
<path d="M106.358 437.653H21.9617V559.65H106.358V437.653Z" fill="#A6C7BC"/>
<path d="M405.652 454.949H358.536V559.65H405.652V454.949Z" fill="#86A2A0"/>
<path d="M392.626 504.144H233.548V560.273H392.626V504.144Z" fill="#A6C7BC"/>
<path d="M36.4196 451.792H29.2488V460.32H36.4196V451.792Z" fill="#F3F0DD"/>
<path d="M52.0823 451.792H44.9115V460.32H52.0823V451.792Z" fill="#F3F0DD"/>
<path d="M67.7456 451.792H60.5742V460.32H67.7456V451.792Z" fill="#F3F0DD"/>
<path d="M83.4083 451.792H76.2375V460.32H83.4083V451.792Z" fill="#F3F0DD"/>
<path d="M99.071 451.792H91.9002V460.32H99.071V451.792Z" fill="#F3F0DD"/>
<path d="M36.4196 467.1H29.2488V475.628H36.4196V467.1Z" fill="#F3F0DD"/>
<path d="M52.0823 467.1H44.9115V475.628H52.0823V467.1Z" fill="#F3F0DD"/>
<path d="M67.7456 467.1H60.5742V475.628H67.7456V467.1Z" fill="#F3F0DD"/>
<path d="M83.4083 467.1H76.2375V475.628H83.4083V467.1Z" fill="#F3F0DD"/>
<path d="M99.071 467.1H91.9002V475.628H99.071V467.1Z" fill="#F3F0DD"/>
<path d="M36.4196 482.409H29.2488V490.937H36.4196V482.409Z" fill="#F3F0DD"/>
<path d="M52.0823 482.409H44.9115V490.937H52.0823V482.409Z" fill="#F3F0DD"/>
<path d="M67.7456 482.409H60.5742V490.937H67.7456V482.409Z" fill="#F3F0DD"/>
<path d="M83.4083 482.409H76.2375V490.937H83.4083V482.409Z" fill="#F3F0DD"/>
<path d="M99.071 482.409H91.9002V490.937H99.071V482.409Z" fill="#F3F0DD"/>
<path d="M36.4196 497.717H29.2488V506.245H36.4196V497.717Z" fill="#F3F0DD"/>
<path d="M52.0823 497.717H44.9115V506.245H52.0823V497.717Z" fill="#F3F0DD"/>
<path d="M67.7456 497.717H60.5742V506.245H67.7456V497.717Z" fill="#F3F0DD"/>
<path d="M83.4083 497.717H76.2375V506.245H83.4083V497.717Z" fill="#F3F0DD"/>
<path d="M99.071 497.717H91.9002V506.245H99.071V497.717Z" fill="#F3F0DD"/>
<path d="M36.4196 513.026H29.2488V521.554H36.4196V513.026Z" fill="#F3F0DD"/>
<path d="M52.0823 513.026H44.9115V521.554H52.0823V513.026Z" fill="#F3F0DD"/>
<path d="M67.7456 513.026H60.5742V521.554H67.7456V513.026Z" fill="#F3F0DD"/>
<path d="M83.4083 513.026H76.2375V521.554H83.4083V513.026Z" fill="#F3F0DD"/>
<path d="M99.071 513.026H91.9002V521.554H99.071V513.026Z" fill="#F3F0DD"/>
<path d="M36.4196 528.334H29.2488V536.863H36.4196V528.334Z" fill="#F3F0DD"/>
<path d="M52.0823 528.334H44.9115V536.863H52.0823V528.334Z" fill="#F3F0DD"/>
<path d="M67.7456 528.334H60.5742V536.863H67.7456V528.334Z" fill="#F3F0DD"/>
<path d="M83.4083 528.334H76.2375V536.863H83.4083V528.334Z" fill="#F3F0DD"/>
<path d="M99.071 528.334H91.9002V536.863H99.071V528.334Z" fill="#F3F0DD"/>
<path d="M36.4196 544.256H29.2488V552.784H36.4196V544.256Z" fill="#F3F0DD"/>
<path d="M52.0823 544.256H44.9115V552.784H52.0823V544.256Z" fill="#F3F0DD"/>
<path d="M67.7456 544.256H60.5742V552.784H67.7456V544.256Z" fill="#F3F0DD"/>
<path d="M83.4083 544.256H76.2375V552.784H83.4083V544.256Z" fill="#F3F0DD"/>
<path d="M99.071 544.256H91.9002V552.784H99.071V544.256Z" fill="#F3F0DD"/>
<path d="M118.523 549.887C114.471 549.887 111.187 553.161 111.187 557.199H125.859C125.859 553.161 122.575 549.887 118.523 549.887Z" fill="#E08C51"/>
<path d="M127.645 562.825C129.326 562.825 130.689 561.467 130.689 559.792C130.689 558.117 129.326 556.76 127.645 556.76H109.401C107.721 556.76 106.358 558.117 106.358 559.792C106.358 561.467 107.721 562.825 109.401 562.825H127.645Z" fill="#E08C51"/>
<path d="M126.674 562.534C126.674 561.147 125.546 560.023 124.155 560.023C122.764 560.023 121.636 561.147 121.636 562.534C121.636 563.92 122.764 565.044 124.155 565.044C125.546 565.044 126.674 563.92 126.674 562.534Z" fill="#333333"/>
<path d="M115.347 562.534C115.347 561.147 114.219 560.023 112.829 560.023C111.437 560.023 110.309 561.147 110.309 562.534C110.309 563.92 111.437 565.044 112.829 565.044C114.219 565.044 115.347 563.92 115.347 562.534Z" fill="#333333"/>
<path d="M114.277 562.534C114.277 561.738 113.627 561.091 112.829 561.091C112.03 561.091 111.381 561.738 111.381 562.534C111.381 563.33 112.03 563.976 112.829 563.976C113.627 563.976 114.277 563.33 114.277 562.534Z" fill="#DDDDDC"/>
<path d="M112.829 563.976V561.091C113.627 561.091 114.277 561.738 114.277 562.534C114.277 563.33 113.627 563.976 112.829 563.976Z" fill="#C0BFBE"/>
<path d="M124.155 563.976V561.091C124.953 561.091 125.603 561.738 125.603 562.534C125.603 563.33 124.953 563.976 124.155 563.976Z" fill="#C0BFBE"/>
<path d="M119.09 552.115V556.759H125.837C125.73 554.958 124.973 553.333 123.79 552.115H119.09Z" fill="#77C7EF"/>
<path d="M113.257 552.115C112.074 553.333 111.317 554.958 111.209 556.759H117.957V552.115H113.257Z" fill="#77C7EF"/>
<path d="M108.946 559.806C108.946 559.269 108.509 558.833 107.97 558.833C107.43 558.833 106.993 559.269 106.993 559.806C106.993 560.344 107.43 560.779 107.97 560.779C108.509 560.779 108.946 560.344 108.946 559.806Z" fill="#FFD04A"/>
<path d="M107.97 560.779V558.833C108.054 558.833 108.135 558.843 108.213 558.863C108.635 558.972 108.946 559.353 108.946 559.806C108.946 560.28 108.605 560.676 108.154 560.762C108.094 560.773 108.032 560.779 107.97 560.779Z" fill="#DCB345"/>
<path d="M112.829 565.044V563.976C113.627 563.976 114.277 563.33 114.277 562.534C114.277 561.738 113.627 561.091 112.829 561.091V560.023C114.219 560.023 115.347 561.147 115.347 562.534C115.347 562.561 115.347 562.588 115.345 562.615C115.303 563.964 114.192 565.044 112.829 565.044Z" fill="#2E2E2E"/>
<path d="M124.155 565.044V563.976C124.953 563.976 125.603 563.33 125.603 562.534C125.603 561.738 124.953 561.091 124.155 561.091V560.023C125.546 560.023 126.674 561.147 126.674 562.534C126.674 562.561 126.674 562.588 126.673 562.615C126.63 563.964 125.519 565.044 124.155 565.044Z" fill="#2E2E2E"/>
<path d="M125.603 562.534C125.603 561.738 124.953 561.091 124.155 561.091C123.357 561.091 122.707 561.738 122.707 562.534C122.707 563.33 123.357 563.976 124.155 563.976C124.953 563.976 125.603 563.33 125.603 562.534Z" fill="#DDDDDC"/>
<path d="M39.9171 565.805C35.8658 565.805 32.5812 569.079 32.5812 573.117H47.2537C47.2537 569.079 43.969 565.805 39.9171 565.805Z" fill="#57747E"/>
<path d="M49.0398 578.743C50.7203 578.743 52.0823 577.386 52.0823 575.711C52.0823 574.036 50.7203 572.678 49.0398 572.678H30.7951C29.1146 572.678 27.7525 574.036 27.7525 575.711C27.7525 577.386 29.1146 578.743 30.7951 578.743H49.0398Z" fill="#57747E"/>
<path d="M48.131 578.452C48.131 577.065 47.0032 575.941 45.6119 575.941C44.2212 575.941 43.0934 577.065 43.0934 578.452C43.0934 579.839 44.2212 580.963 45.6119 580.963C47.0032 580.963 48.131 579.839 48.131 578.452Z" fill="#333333"/>
<path d="M47.0599 578.452C47.0599 577.656 46.4106 577.009 45.6119 577.009C44.8138 577.009 44.1645 577.656 44.1645 578.452C44.1645 579.248 44.8138 579.895 45.6119 579.895C46.4106 579.895 47.0599 579.248 47.0599 578.452Z" fill="#DDDDDC"/>
<path d="M36.8043 578.452C36.8043 577.065 35.6765 575.941 34.2858 575.941C32.8946 575.941 31.7667 577.065 31.7667 578.452C31.7667 579.839 32.8946 580.963 34.2858 580.963C35.6765 580.963 36.8043 579.839 36.8043 578.452Z" fill="#333333"/>
<path d="M45.6119 580.963C44.2212 580.963 43.0934 579.839 43.0934 578.452C43.0934 577.065 44.2212 575.941 45.6119 575.941V577.009C44.8138 577.009 44.1645 577.656 44.1645 578.452C44.1645 579.248 44.8138 579.895 45.6119 579.895V580.963Z" fill="#2E2E2E"/>
<path d="M45.6119 579.895C44.8138 579.895 44.1645 579.248 44.1645 578.452C44.1645 577.656 44.8138 577.009 45.6119 577.009V579.895Z" fill="#C0BFBE"/>
<path d="M34.6509 568.033C33.4675 569.25 32.7109 570.876 32.6036 572.678H39.3504V568.033H34.6509Z" fill="#77C7EF"/>
<path d="M40.4839 568.033V572.678H47.2312C47.1234 570.876 46.3668 569.25 45.1839 568.033H40.4839Z" fill="#77C7EF"/>
<path d="M51.4477 575.724C51.4477 575.187 51.0101 574.751 50.4715 574.751C49.9317 574.751 49.4948 575.187 49.4948 575.724C49.4948 576.262 49.9317 576.697 50.4715 576.697C51.0101 576.697 51.4477 576.262 51.4477 575.724Z" fill="#FFD04A"/>
<path d="M50.4715 576.697C49.9317 576.697 49.4948 576.262 49.4948 575.724C49.4948 575.187 49.9317 574.751 50.4715 574.751V576.697Z" fill="#DCB345"/>
<path d="M35.7332 578.452C35.7332 577.656 35.0839 577.009 34.2858 577.009C33.4871 577.009 32.8378 577.656 32.8378 578.452C32.8378 579.248 33.4871 579.895 34.2858 579.895C35.0839 579.895 35.7332 579.248 35.7332 578.452Z" fill="#DDDDDC"/>
<path d="M34.2858 580.963C32.8946 580.963 31.7667 579.839 31.7667 578.452C31.7667 577.065 32.8946 575.941 34.2858 575.941V577.009C33.4871 577.009 32.8378 577.656 32.8378 578.452C32.8378 579.248 33.4871 579.895 34.2858 579.895V580.963Z" fill="#2E2E2E"/>
<path d="M34.2858 580.163C33.4871 580.163 32.8378 579.516 32.8378 578.721C32.8378 577.925 33.4871 577.278 34.2858 577.278V580.163Z" fill="#C0BFBE"/>
<path d="M188.163 565.805C184.111 565.805 180.827 569.079 180.827 573.117H195.499C195.499 569.079 192.214 565.805 188.163 565.805Z" fill="#E08C51"/>
<path d="M197.285 578.743C198.966 578.743 200.328 577.386 200.328 575.711C200.328 574.036 198.966 572.678 197.285 572.678H179.04C177.36 572.678 175.998 574.036 175.998 575.711C175.998 577.386 177.36 578.743 179.04 578.743H197.285Z" fill="#E08C51"/>
<path d="M185.05 578.452C185.05 577.065 183.922 575.941 182.531 575.941C181.14 575.941 180.012 577.065 180.012 578.452C180.012 579.839 181.14 580.963 182.531 580.963C183.922 580.963 185.05 579.839 185.05 578.452Z" fill="#333333"/>
<path d="M196.376 578.452C196.376 577.065 195.249 575.941 193.858 575.941C192.467 575.941 191.339 577.065 191.339 578.452C191.339 579.839 192.467 580.963 193.858 580.963C195.249 580.963 196.376 579.839 196.376 578.452Z" fill="#333333"/>
<path d="M195.305 578.452C195.305 577.656 194.656 577.009 193.858 577.009C193.059 577.009 192.41 577.656 192.41 578.452C192.41 579.248 193.059 579.895 193.858 579.895C194.656 579.895 195.305 579.248 195.305 578.452Z" fill="#DDDDDC"/>
<path d="M183.979 578.452C183.979 577.656 183.329 577.009 182.531 577.009C181.733 577.009 181.083 577.656 181.083 578.452C181.083 579.248 181.733 579.895 182.531 579.895C183.329 579.895 183.979 579.248 183.979 578.452Z" fill="#DDDDDC"/>
<path d="M193.858 580.963C192.494 580.963 191.383 579.882 191.34 578.533C191.339 578.506 191.339 578.479 191.339 578.452C191.339 577.065 192.467 575.941 193.858 575.941V577.009C193.059 577.009 192.41 577.656 192.41 578.452C192.41 579.248 193.059 579.895 193.858 579.895V580.963Z" fill="#2E2E2E"/>
<path d="M182.531 580.963C181.14 580.963 180.012 579.839 180.012 578.452C180.012 577.065 181.14 575.941 182.531 575.941V577.009C181.732 577.009 181.083 577.656 181.083 578.452C181.083 579.248 181.732 579.895 182.531 579.895V580.963Z" fill="#2E2E2E"/>
<path d="M188.73 568.033V572.678H195.477C195.369 570.876 194.612 569.25 193.429 568.033H188.73Z" fill="#77C7EF"/>
<path d="M199.693 575.724C199.693 575.187 199.256 574.751 198.717 574.751C198.178 574.751 197.74 575.187 197.74 575.724C197.74 576.262 198.178 576.697 198.717 576.697C199.256 576.697 199.693 576.262 199.693 575.724Z" fill="#FFD04A"/>
<path d="M182.896 568.033C181.713 569.25 180.957 570.876 180.849 572.678H187.596V568.033H182.896Z" fill="#77C7EF"/>
<path d="M198.717 576.697C198.178 576.697 197.74 576.262 197.74 575.724C197.74 575.187 198.178 574.751 198.717 574.751V576.697Z" fill="#DCB345"/>
<path d="M182.531 579.895C181.732 579.895 181.083 579.248 181.083 578.452C181.083 577.656 181.732 577.009 182.531 577.009V579.895Z" fill="#C0BFBE"/>
<path d="M193.858 579.895C193.059 579.895 192.41 579.248 192.41 578.452C192.41 577.656 193.059 577.009 193.858 577.009V579.895Z" fill="#C0BFBE"/>
<path d="M138.061 390.187H134.011V550.249H138.061V390.187Z" fill="#F3F0DD"/>
<path d="M155.56 390.187H151.511V550.249H155.56V390.187Z" fill="#F3F0DD"/>
<path d="M173.059 390.187H169.01V550.249H173.059V390.187Z" fill="#F3F0DD"/>
<path d="M384.842 512.892H241.33V518.279H384.842V512.892Z" fill="#F3F0DD"/>
<path d="M384.842 524.675H241.33V530.061H384.842V524.675Z" fill="#F3F0DD"/>
<path d="M384.842 536.457H241.33V541.843H384.842V536.457Z" fill="#F3F0DD"/>
<path d="M384.842 547.557H241.33V552.943H384.842V547.557Z" fill="#F3F0DD"/>
<path d="M335.356 552.213C331.304 552.213 328.02 555.487 328.02 559.526H342.692C342.692 555.487 339.408 552.213 335.356 552.213Z" fill="#57747E"/>
<path d="M344.479 565.152C346.159 565.152 347.521 563.794 347.521 562.119C347.521 560.444 346.159 559.086 344.479 559.086H326.233C324.553 559.086 323.191 560.444 323.191 562.119C323.191 563.794 324.553 565.152 326.233 565.152H344.479Z" fill="#57747E"/>
<path d="M343.57 564.86C343.57 563.474 342.442 562.35 341.051 562.35C339.659 562.35 338.532 563.474 338.532 564.86C338.532 566.247 339.659 567.371 341.051 567.371C342.442 567.371 343.57 566.247 343.57 564.86Z" fill="#333333"/>
<path d="M332.243 564.86C332.243 563.474 331.115 562.35 329.724 562.35C328.333 562.35 327.205 563.474 327.205 564.86C327.205 566.247 328.333 567.371 329.724 567.371C331.115 567.371 332.243 566.247 332.243 564.86Z" fill="#333333"/>
<path d="M329.724 566.303C328.926 566.303 328.277 565.656 328.277 564.86C328.277 564.065 328.926 563.418 329.724 563.418V566.303Z" fill="#C0BFBE"/>
<path d="M330.09 554.441C328.906 555.659 328.15 557.284 328.042 559.086H334.789V554.441H330.09Z" fill="#77C7EF"/>
<path d="M335.923 554.441V559.086H342.67C342.562 557.284 341.805 555.659 340.622 554.441H335.923Z" fill="#77C7EF"/>
<path d="M342.499 564.86C342.499 564.065 341.849 563.418 341.051 563.418C340.252 563.418 339.603 564.065 339.603 564.86C339.603 565.656 340.252 566.303 341.051 566.303C341.849 566.303 342.499 565.656 342.499 564.86Z" fill="#DDDDDC"/>
<path d="M331.171 564.86C331.171 564.065 330.522 563.418 329.725 563.418C328.926 563.418 328.277 564.065 328.277 564.86C328.277 565.656 328.926 566.303 329.725 566.303C330.522 566.303 331.171 565.656 331.171 564.86Z" fill="#DDDDDC"/>
<path d="M341.051 567.371C339.687 567.371 338.576 566.291 338.533 564.941C338.532 564.915 338.532 564.888 338.532 564.86C338.532 563.474 339.659 562.35 341.051 562.35V563.418C340.252 563.418 339.603 564.065 339.603 564.86C339.603 565.656 340.252 566.303 341.051 566.303V567.371Z" fill="#2E2E2E"/>
<path d="M341.051 566.303C340.252 566.303 339.603 565.656 339.603 564.86C339.603 564.065 340.252 563.418 341.051 563.418V566.303Z" fill="#C0BFBE"/>
<path d="M329.724 567.371C328.333 567.371 327.205 566.247 327.205 564.86C327.205 563.474 328.333 562.35 329.724 562.35V563.418C328.926 563.418 328.277 564.065 328.277 564.86C328.277 565.656 328.926 566.303 329.724 566.303V567.371Z" fill="#2E2E2E"/>
<path d="M346.886 562.132C346.886 561.595 346.449 561.159 345.91 561.159C345.37 561.159 344.933 561.595 344.933 562.132C344.933 562.67 345.37 563.106 345.91 563.106C346.449 563.106 346.886 562.67 346.886 562.132Z" fill="#FFD04A"/>
<path d="M345.91 563.106C345.37 563.106 344.933 562.67 344.933 562.132C344.933 561.595 345.37 561.159 345.91 561.159V563.106Z" fill="#DCB345"/>
</g>
<defs>
<clipPath id="clip0_409_1063">
<rect width="588" height="289" fill="white" transform="translate(-136 292)"/>
</clipPath>
</defs>
</svg>
