<svg width="360" height="508" viewBox="0 0 360 508" fill="none" xmlns="http://www.w3.org/2000/svg">
<path d="M165.464 240.793C56.0226 194.945 61.7003 193.844 -17 211.825V508H376V211.825C373.828 223.146 297.801 296.232 165.464 240.793Z" fill="#59716D"/>
<path d="M357 310C174 346 246 428 -3 435V507H357V310Z" fill="black" fill-opacity="0.05"/>
<g clip-path="url(#clip0_348_915)">
<path d="M134.011 -0.000549316H78.705V269.764H134.011V-0.000549316Z" fill="#627E7A"/>
<path d="M106.383 267.873H106.358V267.65H106.365C106.369 267.725 106.375 267.799 106.383 267.873ZM124.764 131.066H106.358V-0.000549316H134.011V82.3287H124.764V131.066Z" fill="#59716D"/>
<path d="M331.294 100.094H275.987V269.316H331.294V100.094Z" fill="#627E7A"/>
<path d="M323.894 267.873H303.641V100.094H331.294V266.568H326.233C325.293 266.568 324.452 267.075 323.894 267.873Z" fill="#59716D"/>
<path d="M185.616 39.1638L164.874 67.4147V269.764H206.358V67.4147L185.616 39.1638Z" fill="#627E7A"/>
<path d="M206.358 268.18H185.616V267.994H206.358V268.18ZM206.358 153.526H185.616V76.5048L206.358 100.181V153.526Z" fill="#59716D"/>
<path d="M441.48 288.963C447.238 288.963 451.911 284.31 451.911 278.571C451.911 272.832 447.238 268.18 441.48 268.18H-125.482C-131.24 268.18 -135.907 272.832 -135.907 278.571C-135.907 284.31 -131.24 288.963 -125.482 288.963H441.48Z" fill="#C8C2A8"/>
<mask id="mask0_348_915" style="mask-type:luminance" maskUnits="userSpaceOnUse" x="-136" y="268" width="588" height="21">
<path d="M441.48 288.963C447.238 288.963 451.911 284.31 451.911 278.571C451.911 272.832 447.238 268.18 441.48 268.18H-125.482C-131.24 268.18 -135.907 272.832 -135.907 278.571C-135.907 284.31 -131.24 288.963 -125.482 288.963H441.48Z" fill="white"/>
</mask>
<g mask="url(#mask0_348_915)">
<path d="M8.30933 277.509H-0.626831V279.202H8.30933V277.509Z" fill="white"/>
<path d="M136.775 277.509H127.839V279.202H136.775V277.509Z" fill="white"/>
<path d="M59.6958 277.509H50.7596V279.202H59.6958V277.509Z" fill="white"/>
<path d="M85.3895 277.509H76.4528V279.202H85.3895V277.509Z" fill="white"/>
<path d="M111.082 277.509H102.145V279.202H111.082V277.509Z" fill="white"/>
<path d="M34.0029 277.509H25.0662V279.202H34.0029V277.509Z" fill="white"/>
<path d="M342.322 277.509H333.385V279.202H342.322V277.509Z" fill="white"/>
<path d="M368.015 277.509H359.078V279.202H368.015V277.509Z" fill="white"/>
<path d="M316.629 277.509H307.691V279.202H316.629V277.509Z" fill="white"/>
<path d="M290.935 277.509H281.998V279.202H290.935V277.509Z" fill="white"/>
<path d="M239.549 277.509H230.612V279.202H239.549V277.509Z" fill="white"/>
<path d="M213.856 277.509H204.918V279.202H213.856V277.509Z" fill="white"/>
<path d="M265.242 277.509H256.305V279.202H265.242V277.509Z" fill="white"/>
<path d="M188.162 277.509H179.225V279.202H188.162V277.509Z" fill="white"/>
<path d="M162.469 277.509H153.532V279.202H162.469V277.509Z" fill="white"/>
</g>
<path d="M259.967 131.066H68.9937V267.65H259.967V131.066Z" fill="#86A2A0"/>
<path d="M259.967 267.65H182.307V131.066H259.967V267.65Z" fill="#778F8C"/>
<path d="M60.6152 202.209H-98.5798V267.984H60.6152V202.209Z" fill="#86A2A0"/>
<path d="M60.6152 268.273H-18.9823V267.994H-3.38305V213.149H60.6152V268.273Z" fill="#778F8C"/>
<path d="M182.307 82.3287H124.764V267.873H182.307V82.3287Z" fill="#A6C7BC"/>
<path d="M106.358 145.653H21.9618V267.65H106.358V145.653Z" fill="#A6C7BC"/>
<path d="M405.652 162.949H358.536V267.65H405.652V162.949Z" fill="#86A2A0"/>
<path d="M392.627 212.144H233.548V268.273H392.627V212.144Z" fill="#A6C7BC"/>
<path d="M36.4197 159.792H29.2489V168.32H36.4197V159.792Z" fill="#F3F0DD"/>
<path d="M52.0825 159.792H44.9116V168.32H52.0825V159.792Z" fill="#F3F0DD"/>
<path d="M67.7456 159.792H60.5742V168.32H67.7456V159.792Z" fill="#F3F0DD"/>
<path d="M83.4084 159.792H76.2375V168.32H83.4084V159.792Z" fill="#F3F0DD"/>
<path d="M99.0711 159.792H91.9003V168.32H99.0711V159.792Z" fill="#F3F0DD"/>
<path d="M36.4197 175.1H29.2489V183.628H36.4197V175.1Z" fill="#F3F0DD"/>
<path d="M52.0825 175.1H44.9116V183.628H52.0825V175.1Z" fill="#F3F0DD"/>
<path d="M67.7456 175.1H60.5742V183.628H67.7456V175.1Z" fill="#F3F0DD"/>
<path d="M83.4084 175.1H76.2375V183.628H83.4084V175.1Z" fill="#F3F0DD"/>
<path d="M99.0711 175.1H91.9003V183.628H99.0711V175.1Z" fill="#F3F0DD"/>
<path d="M36.4197 190.409H29.2489V198.937H36.4197V190.409Z" fill="#F3F0DD"/>
<path d="M52.0825 190.409H44.9116V198.937H52.0825V190.409Z" fill="#F3F0DD"/>
<path d="M67.7456 190.409H60.5742V198.937H67.7456V190.409Z" fill="#F3F0DD"/>
<path d="M83.4084 190.409H76.2375V198.937H83.4084V190.409Z" fill="#F3F0DD"/>
<path d="M99.0711 190.409H91.9003V198.937H99.0711V190.409Z" fill="#F3F0DD"/>
<path d="M36.4197 205.717H29.2489V214.245H36.4197V205.717Z" fill="#F3F0DD"/>
<path d="M52.0825 205.717H44.9116V214.245H52.0825V205.717Z" fill="#F3F0DD"/>
<path d="M67.7456 205.717H60.5742V214.245H67.7456V205.717Z" fill="#F3F0DD"/>
<path d="M83.4084 205.717H76.2375V214.245H83.4084V205.717Z" fill="#F3F0DD"/>
<path d="M99.0711 205.717H91.9003V214.245H99.0711V205.717Z" fill="#F3F0DD"/>
<path d="M36.4197 221.026H29.2489V229.554H36.4197V221.026Z" fill="#F3F0DD"/>
<path d="M52.0825 221.026H44.9116V229.554H52.0825V221.026Z" fill="#F3F0DD"/>
<path d="M67.7456 221.026H60.5742V229.554H67.7456V221.026Z" fill="#F3F0DD"/>
<path d="M83.4084 221.026H76.2375V229.554H83.4084V221.026Z" fill="#F3F0DD"/>
<path d="M99.0711 221.026H91.9003V229.554H99.0711V221.026Z" fill="#F3F0DD"/>
<path d="M36.4197 236.334H29.2489V244.863H36.4197V236.334Z" fill="#F3F0DD"/>
<path d="M52.0825 236.334H44.9116V244.863H52.0825V236.334Z" fill="#F3F0DD"/>
<path d="M67.7456 236.334H60.5742V244.863H67.7456V236.334Z" fill="#F3F0DD"/>
<path d="M83.4084 236.334H76.2375V244.863H83.4084V236.334Z" fill="#F3F0DD"/>
<path d="M99.0711 236.334H91.9003V244.863H99.0711V236.334Z" fill="#F3F0DD"/>
<path d="M36.4197 252.256H29.2489V260.784H36.4197V252.256Z" fill="#F3F0DD"/>
<path d="M52.0825 252.256H44.9116V260.784H52.0825V252.256Z" fill="#F3F0DD"/>
<path d="M67.7456 252.256H60.5742V260.784H67.7456V252.256Z" fill="#F3F0DD"/>
<path d="M83.4084 252.256H76.2375V260.784H83.4084V252.256Z" fill="#F3F0DD"/>
<path d="M99.0711 252.256H91.9003V260.784H99.0711V252.256Z" fill="#F3F0DD"/>
<path d="M118.523 257.887C114.471 257.887 111.187 261.161 111.187 265.199H125.859C125.859 261.161 122.575 257.887 118.523 257.887Z" fill="#E08C51"/>
<path d="M127.645 270.825C129.326 270.825 130.689 269.467 130.689 267.792C130.689 266.117 129.326 264.76 127.645 264.76H109.401C107.721 264.76 106.358 266.117 106.358 267.792C106.358 269.467 107.721 270.825 109.401 270.825H127.645Z" fill="#E08C51"/>
<path d="M126.674 270.534C126.674 269.147 125.546 268.023 124.155 268.023C122.764 268.023 121.636 269.147 121.636 270.534C121.636 271.92 122.764 273.044 124.155 273.044C125.546 273.044 126.674 271.92 126.674 270.534Z" fill="#333333"/>
<path d="M115.347 270.534C115.347 269.147 114.219 268.023 112.829 268.023C111.437 268.023 110.309 269.147 110.309 270.534C110.309 271.92 111.437 273.044 112.829 273.044C114.219 273.044 115.347 271.92 115.347 270.534Z" fill="#333333"/>
<path d="M114.277 270.534C114.277 269.738 113.627 269.091 112.829 269.091C112.03 269.091 111.381 269.738 111.381 270.534C111.381 271.33 112.03 271.976 112.829 271.976C113.627 271.976 114.277 271.33 114.277 270.534Z" fill="#DDDDDC"/>
<path d="M112.829 271.976V269.091C113.627 269.091 114.277 269.738 114.277 270.534C114.277 271.33 113.627 271.976 112.829 271.976Z" fill="#C0BFBE"/>
<path d="M124.155 271.976V269.091C124.953 269.091 125.603 269.738 125.603 270.534C125.603 271.33 124.953 271.976 124.155 271.976Z" fill="#C0BFBE"/>
<path d="M119.09 260.115V264.759H125.837C125.73 262.958 124.973 261.333 123.79 260.115H119.09Z" fill="#77C7EF"/>
<path d="M113.257 260.115C112.074 261.333 111.317 262.958 111.209 264.759H117.957V260.115H113.257Z" fill="#77C7EF"/>
<path d="M108.946 267.806C108.946 267.269 108.509 266.833 107.97 266.833C107.43 266.833 106.993 267.269 106.993 267.806C106.993 268.344 107.43 268.779 107.97 268.779C108.509 268.779 108.946 268.344 108.946 267.806Z" fill="#FFD04A"/>
<path d="M107.97 268.779V266.833C108.054 266.833 108.135 266.843 108.213 266.863C108.635 266.972 108.946 267.353 108.946 267.806C108.946 268.28 108.605 268.676 108.154 268.762C108.094 268.773 108.033 268.779 107.97 268.779Z" fill="#DCB345"/>
<path d="M112.829 273.044V271.976C113.627 271.976 114.277 271.33 114.277 270.534C114.277 269.738 113.627 269.091 112.829 269.091V268.023C114.219 268.023 115.347 269.147 115.347 270.534C115.347 270.561 115.347 270.588 115.345 270.615C115.303 271.964 114.192 273.044 112.829 273.044Z" fill="#2E2E2E"/>
<path d="M124.155 273.044V271.976C124.953 271.976 125.603 271.33 125.603 270.534C125.603 269.738 124.953 269.091 124.155 269.091V268.023C125.546 268.023 126.674 269.147 126.674 270.534C126.674 270.561 126.674 270.588 126.673 270.615C126.63 271.964 125.519 273.044 124.155 273.044Z" fill="#2E2E2E"/>
<path d="M125.603 270.534C125.603 269.738 124.953 269.091 124.155 269.091C123.356 269.091 122.707 269.738 122.707 270.534C122.707 271.33 123.356 271.976 124.155 271.976C124.953 271.976 125.603 271.33 125.603 270.534Z" fill="#DDDDDC"/>
<path d="M39.9171 273.805C35.8658 273.805 32.5812 277.079 32.5812 281.117H47.2537C47.2537 277.079 43.969 273.805 39.9171 273.805Z" fill="#57747E"/>
<path d="M49.0398 286.743C50.7204 286.743 52.0824 285.386 52.0824 283.711C52.0824 282.036 50.7204 280.678 49.0398 280.678H30.7951C29.1146 280.678 27.7526 282.036 27.7526 283.711C27.7526 285.386 29.1146 286.743 30.7951 286.743H49.0398Z" fill="#57747E"/>
<path d="M48.131 286.452C48.131 285.065 47.0032 283.941 45.6119 283.941C44.2212 283.941 43.0934 285.065 43.0934 286.452C43.0934 287.839 44.2212 288.963 45.6119 288.963C47.0032 288.963 48.131 287.839 48.131 286.452Z" fill="#333333"/>
<path d="M47.06 286.452C47.06 285.656 46.4107 285.009 45.612 285.009C44.8139 285.009 44.1646 285.656 44.1646 286.452C44.1646 287.248 44.8139 287.895 45.612 287.895C46.4107 287.895 47.06 287.248 47.06 286.452Z" fill="#DDDDDC"/>
<path d="M36.8045 286.452C36.8045 285.065 35.6766 283.941 34.2859 283.941C32.8947 283.941 31.7668 285.065 31.7668 286.452C31.7668 287.839 32.8947 288.963 34.2859 288.963C35.6766 288.963 36.8045 287.839 36.8045 286.452Z" fill="#333333"/>
<path d="M45.6119 288.963C44.2212 288.963 43.0934 287.839 43.0934 286.452C43.0934 285.065 44.2212 283.941 45.6119 283.941V285.009C44.8138 285.009 44.1645 285.656 44.1645 286.452C44.1645 287.248 44.8138 287.895 45.6119 287.895V288.963Z" fill="#2E2E2E"/>
<path d="M45.612 287.895C44.8139 287.895 44.1646 287.248 44.1646 286.452C44.1646 285.656 44.8139 285.009 45.612 285.009V287.895Z" fill="#C0BFBE"/>
<path d="M34.6509 276.033C33.4675 277.25 32.7109 278.876 32.6036 280.678H39.3504V276.033H34.6509Z" fill="#77C7EF"/>
<path d="M40.4839 276.033V280.678H47.2312C47.1234 278.876 46.3668 277.25 45.1839 276.033H40.4839Z" fill="#77C7EF"/>
<path d="M51.4477 283.724C51.4477 283.187 51.0101 282.751 50.4715 282.751C49.9317 282.751 49.4948 283.187 49.4948 283.724C49.4948 284.262 49.9317 284.697 50.4715 284.697C51.0101 284.697 51.4477 284.262 51.4477 283.724Z" fill="#FFD04A"/>
<path d="M50.4715 284.697C49.9317 284.697 49.4948 284.262 49.4948 283.724C49.4948 283.187 49.9317 282.751 50.4715 282.751V284.697Z" fill="#DCB345"/>
<path d="M35.7333 286.452C35.7333 285.656 35.084 285.009 34.2859 285.009C33.4872 285.009 32.8379 285.656 32.8379 286.452C32.8379 287.248 33.4872 287.895 34.2859 287.895C35.084 287.895 35.7333 287.248 35.7333 286.452Z" fill="#DDDDDC"/>
<path d="M34.2859 288.963C32.8947 288.963 31.7668 287.839 31.7668 286.452C31.7668 285.065 32.8947 283.941 34.2859 283.941V285.009C33.4872 285.009 32.838 285.656 32.838 286.452C32.838 287.248 33.4872 287.895 34.2859 287.895V288.963Z" fill="#2E2E2E"/>
<path d="M34.2859 288.163C33.4872 288.163 32.8379 287.516 32.8379 286.721C32.8379 285.925 33.4872 285.278 34.2859 285.278V288.163Z" fill="#C0BFBE"/>
<path d="M188.163 273.805C184.111 273.805 180.827 277.079 180.827 281.117H195.499C195.499 277.079 192.214 273.805 188.163 273.805Z" fill="#E08C51"/>
<path d="M197.285 286.743C198.966 286.743 200.328 285.386 200.328 283.711C200.328 282.036 198.966 280.678 197.285 280.678H179.04C177.36 280.678 175.998 282.036 175.998 283.711C175.998 285.386 177.36 286.743 179.04 286.743H197.285Z" fill="#E08C51"/>
<path d="M185.05 286.452C185.05 285.065 183.922 283.941 182.531 283.941C181.14 283.941 180.012 285.065 180.012 286.452C180.012 287.839 181.14 288.963 182.531 288.963C183.922 288.963 185.05 287.839 185.05 286.452Z" fill="#333333"/>
<path d="M196.376 286.452C196.376 285.065 195.249 283.941 193.858 283.941C192.467 283.941 191.339 285.065 191.339 286.452C191.339 287.839 192.467 288.963 193.858 288.963C195.249 288.963 196.376 287.839 196.376 286.452Z" fill="#333333"/>
<path d="M195.305 286.452C195.305 285.656 194.656 285.009 193.858 285.009C193.059 285.009 192.41 285.656 192.41 286.452C192.41 287.248 193.059 287.895 193.858 287.895C194.656 287.895 195.305 287.248 195.305 286.452Z" fill="#DDDDDC"/>
<path d="M183.979 286.452C183.979 285.656 183.329 285.009 182.531 285.009C181.733 285.009 181.083 285.656 181.083 286.452C181.083 287.248 181.733 287.895 182.531 287.895C183.329 287.895 183.979 287.248 183.979 286.452Z" fill="#DDDDDC"/>
<path d="M193.858 288.963C192.494 288.963 191.383 287.882 191.34 286.533C191.339 286.506 191.339 286.479 191.339 286.452C191.339 285.065 192.467 283.941 193.858 283.941V285.009C193.059 285.009 192.41 285.656 192.41 286.452C192.41 287.248 193.059 287.895 193.858 287.895V288.963Z" fill="#2E2E2E"/>
<path d="M182.531 288.963C181.14 288.963 180.012 287.839 180.012 286.452C180.012 285.065 181.14 283.941 182.531 283.941V285.009C181.732 285.009 181.083 285.656 181.083 286.452C181.083 287.248 181.732 287.895 182.531 287.895V288.963Z" fill="#2E2E2E"/>
<path d="M188.73 276.033V280.678H195.477C195.369 278.876 194.612 277.25 193.429 276.033H188.73Z" fill="#77C7EF"/>
<path d="M199.693 283.724C199.693 283.187 199.256 282.751 198.717 282.751C198.178 282.751 197.74 283.187 197.74 283.724C197.74 284.262 198.178 284.697 198.717 284.697C199.256 284.697 199.693 284.262 199.693 283.724Z" fill="#FFD04A"/>
<path d="M182.896 276.033C181.713 277.25 180.957 278.876 180.849 280.678H187.596V276.033H182.896Z" fill="#77C7EF"/>
<path d="M198.717 284.697C198.178 284.697 197.74 284.262 197.74 283.724C197.74 283.187 198.178 282.751 198.717 282.751V284.697Z" fill="#DCB345"/>
<path d="M182.531 287.895C181.733 287.895 181.083 287.248 181.083 286.452C181.083 285.656 181.733 285.009 182.531 285.009V287.895Z" fill="#C0BFBE"/>
<path d="M193.858 287.895C193.059 287.895 192.41 287.248 192.41 286.452C192.41 285.656 193.059 285.009 193.858 285.009V287.895Z" fill="#C0BFBE"/>
<path d="M138.061 98.1871H134.011V258.249H138.061V98.1871Z" fill="#F3F0DD"/>
<path d="M155.56 98.1871H151.511V258.249H155.56V98.1871Z" fill="#F3F0DD"/>
<path d="M173.059 98.1871H169.01V258.249H173.059V98.1871Z" fill="#F3F0DD"/>
<path d="M384.842 220.892H241.33V226.279H384.842V220.892Z" fill="#F3F0DD"/>
<path d="M384.842 232.675H241.33V238.061H384.842V232.675Z" fill="#F3F0DD"/>
<path d="M384.842 244.457H241.33V249.843H384.842V244.457Z" fill="#F3F0DD"/>
<path d="M384.842 255.557H241.33V260.943H384.842V255.557Z" fill="#F3F0DD"/>
<path d="M335.356 260.213C331.304 260.213 328.02 263.487 328.02 267.526H342.692C342.692 263.487 339.408 260.213 335.356 260.213Z" fill="#57747E"/>
<path d="M344.479 273.152C346.159 273.152 347.521 271.794 347.521 270.119C347.521 268.444 346.159 267.086 344.479 267.086H326.233C324.553 267.086 323.191 268.444 323.191 270.119C323.191 271.794 324.553 273.152 326.233 273.152H344.479Z" fill="#57747E"/>
<path d="M343.57 272.86C343.57 271.474 342.442 270.35 341.051 270.35C339.659 270.35 338.531 271.474 338.531 272.86C338.531 274.247 339.659 275.371 341.051 275.371C342.442 275.371 343.57 274.247 343.57 272.86Z" fill="#333333"/>
<path d="M332.243 272.86C332.243 271.474 331.115 270.35 329.724 270.35C328.333 270.35 327.205 271.474 327.205 272.86C327.205 274.247 328.333 275.371 329.724 275.371C331.115 275.371 332.243 274.247 332.243 272.86Z" fill="#333333"/>
<path d="M329.724 274.303C328.926 274.303 328.277 273.656 328.277 272.86C328.277 272.065 328.926 271.418 329.724 271.418V274.303Z" fill="#C0BFBE"/>
<path d="M330.09 262.441C328.906 263.659 328.15 265.284 328.042 267.086H334.789V262.441H330.09Z" fill="#77C7EF"/>
<path d="M335.923 262.441V267.086H342.67C342.562 265.284 341.806 263.659 340.622 262.441H335.923Z" fill="#77C7EF"/>
<path d="M342.499 272.86C342.499 272.065 341.849 271.418 341.051 271.418C340.252 271.418 339.603 272.065 339.603 272.86C339.603 273.656 340.252 274.303 341.051 274.303C341.849 274.303 342.499 273.656 342.499 272.86Z" fill="#DDDDDC"/>
<path d="M331.171 272.86C331.171 272.065 330.522 271.418 329.725 271.418C328.926 271.418 328.277 272.065 328.277 272.86C328.277 273.656 328.926 274.303 329.725 274.303C330.522 274.303 331.171 273.656 331.171 272.86Z" fill="#DDDDDC"/>
<path d="M341.051 275.371C339.687 275.371 338.576 274.291 338.533 272.941C338.532 272.915 338.531 272.888 338.531 272.86C338.531 271.474 339.659 270.35 341.051 270.35V271.418C340.252 271.418 339.603 272.065 339.603 272.86C339.603 273.656 340.252 274.303 341.051 274.303V275.371Z" fill="#2E2E2E"/>
<path d="M341.051 274.303C340.252 274.303 339.603 273.656 339.603 272.86C339.603 272.065 340.252 271.418 341.051 271.418V274.303Z" fill="#C0BFBE"/>
<path d="M329.724 275.371C328.333 275.371 327.205 274.247 327.205 272.86C327.205 271.474 328.333 270.35 329.724 270.35V271.418C328.926 271.418 328.277 272.065 328.277 272.86C328.277 273.656 328.926 274.303 329.724 274.303V275.371Z" fill="#2E2E2E"/>
<path d="M346.886 270.132C346.886 269.595 346.449 269.159 345.91 269.159C345.37 269.159 344.933 269.595 344.933 270.132C344.933 270.67 345.37 271.106 345.91 271.106C346.449 271.106 346.886 270.67 346.886 270.132Z" fill="#FFD04A"/>
<path d="M345.91 271.106C345.37 271.106 344.933 270.67 344.933 270.132C344.933 269.595 345.37 269.159 345.91 269.159V271.106Z" fill="#DCB345"/>
</g>
<defs>
<clipPath id="clip0_348_915">
<rect width="588" height="289" fill="white" transform="translate(-136)"/>
</clipPath>
</defs>
</svg>
