<svg width="30" height="30" viewBox="0 0 30 30" fill="none" xmlns="http://www.w3.org/2000/svg">
<path d="M28.2 15.3125C28.2 14.3375 28.1125 13.4 27.95 12.5H15V17.825H22.4C22.075 19.5375 21.1 20.9875 19.6375 21.9625V25.425H24.1C26.7 23.025 28.2 19.5 28.2 15.3125Z" fill="#4285F4"/>
<path d="M15 28.75C18.7125 28.75 21.825 27.525 24.1 25.425L19.6375 21.9625C18.4125 22.7875 16.85 23.2875 15 23.2875C11.425 23.2875 8.38751 20.875 7.30001 17.625H2.72501V21.175C4.98751 25.6625 9.62501 28.75 15 28.75Z" fill="#34A853"/>
<path d="M7.3 17.6125C7.025 16.7875 6.8625 15.9125 6.8625 15C6.8625 14.0875 7.025 13.2125 7.3 12.3875V8.8375H2.725C1.7875 10.6875 1.25 12.775 1.25 15C1.25 17.225 1.7875 19.3125 2.725 21.1625L6.2875 18.3875L7.3 17.6125Z" fill="#FBBC05"/>
<path d="M15 6.725C17.025 6.725 18.825 7.425 20.2625 8.775L24.2 4.8375C21.8125 2.6125 18.7125 1.25 15 1.25C9.62501 1.25 4.98751 4.3375 2.72501 8.8375L7.30001 12.3875C8.38751 9.1375 11.425 6.725 15 6.725Z" fill="#EA4335"/>
</svg>
